<svg width="160" height="149" viewBox="0 0 160 149" fill="none" xmlns="http://www.w3.org/2000/svg">
<g clip-path="url(#clip0_559_519)">
<path d="M139.133 132.077C133.626 138.991 120.394 138.179 111.706 138.477C98.1343 138.553 83.3727 138.491 69.4559 138.51C62.1087 138.51 54.9247 138.534 47.8911 138.471C39.5135 138.265 26.6879 138.679 21.4079 132.593C15.0239 125.379 16.2335 108.508 15.8879 98.532C16.1503 83.5195 14.9887 66.156 17.4175 52.2394C20.0191 37.197 33.5135 37.995 45.3407 37.5314C67.6447 37.3957 92.1535 37.4056 114.48 37.5281C119.165 37.601 124.23 37.7996 128.448 38.5314C134.022 39.4949 138.47 41.5544 140.922 46.8092C144.806 56.2657 143.926 68.189 144.202 79.9302C144.192 89.0689 144.266 98.3665 144.096 107.055C143.891 114.892 143.677 126.571 139.162 132.054L139.139 132.08L139.133 132.077Z" fill="#E2DEDF"/>
<path d="M131.19 123.389C126.422 128.829 114.97 128.19 107.446 128.425C95.696 128.484 82.9184 128.435 70.8736 128.451C64.5152 128.451 58.2944 128.468 52.2048 128.421C44.9504 128.259 33.8496 128.584 29.28 123.796C23.7536 118.121 24.8 104.843 24.5024 96.9957C24.7296 85.1817 23.7248 71.52 25.8272 60.5702C28.08 48.7363 39.76 49.3621 50 48.9978C69.3088 48.8886 90.5248 48.8985 109.85 48.9945C113.904 49.0508 118.291 49.2065 121.939 49.7826C126.765 50.5408 130.614 52.16 132.739 56.2955C136.102 63.7356 135.338 73.116 135.581 82.3573C135.571 89.549 135.638 96.8633 135.488 103.701C135.309 109.869 135.123 119.058 131.216 123.372L131.197 123.395L131.19 123.389Z" fill="#2E414C"/>
<path d="M66.5987 100.727C66.8707 100.409 67.2739 100.376 67.6611 100.37C68.5795 100.366 70.4035 100.37 72.7107 100.37C79.1235 100.37 89.0947 100.37 92.0803 100.37C92.7363 100.363 93.3923 100.376 93.6707 101.141C93.8563 101.615 93.9107 102.373 93.7667 103.244C90.4291 117.293 72.6915 118.972 67.0019 105.247C66.4291 104.058 65.8275 101.681 66.5763 100.757L66.5987 100.731V100.727Z" fill="#92D3CB"/>
<path d="M144.311 103.664C144.141 93.5488 144.378 82.4003 144.205 72.2882L152.679 79.7912L152.922 97.0222L144.311 103.668V103.664Z" fill="#B1ABAF"/>
<path d="M15.7245 103.664C15.8941 93.5488 15.6573 82.4003 15.8301 72.2882L7.35648 79.7912L7.11328 97.0222L15.7245 103.668V103.664Z" fill="#B1ABAF"/>
<path d="M82.4484 20.8269H77.626V37.4321H82.4484V20.8269Z" fill="#B1ABAF"/>
<path d="M80.0388 25.2307C84.0912 25.2307 87.3764 21.8314 87.3764 17.6383C87.3764 13.4451 84.0912 10.0459 80.0388 10.0459C75.9863 10.0459 72.7012 13.4451 72.7012 17.6383C72.7012 21.8314 75.9863 25.2307 80.0388 25.2307Z" fill="#29ABE2"/>
<path d="M122.035 75.5728H95.5484C93.0353 75.5728 90.998 77.6801 90.998 80.2796C90.998 82.879 93.0353 84.9863 95.5484 84.9863H122.035C124.548 84.9863 126.585 82.879 126.585 80.2796C126.585 77.6801 124.548 75.5728 122.035 75.5728Z" fill="#93D4CC"/>
<path d="M64.4606 75.5728H37.9742C35.4611 75.5728 33.4238 77.6801 33.4238 80.2796C33.4238 82.879 35.4611 84.9863 37.9742 84.9863H64.4606C66.9737 84.9863 69.011 82.879 69.011 80.2796C69.011 77.6801 66.9737 75.5728 64.4606 75.5728Z" fill="#93D4CC"/>
</g>
<defs>
<clipPath id="clip0_559_519">
<rect width="160" height="149" fill="white"/>
</clipPath>
</defs>
</svg>
