<svg width="396" height="308" viewBox="0 0 396 308" fill="none" xmlns="http://www.w3.org/2000/svg">
<rect width="396" height="308" rx="15" fill="url(#paint0_linear_596_450)"/>
<path d="M315.948 242.029C305.328 254.201 279.519 252.532 262.588 252.91C236.133 252.81 207.355 252.443 180.226 252.237C165.903 252.11 151.899 252.027 138.186 251.793C121.852 251.284 96.8559 251.796 86.4614 240.906C73.896 227.993 75.9726 198.079 75.1325 180.371C75.3936 153.737 72.8396 122.907 77.3422 98.2549C82.1629 71.6085 108.483 73.2582 131.531 72.6405C175.009 72.786 222.787 73.2282 266.313 73.8323C275.446 74.0427 285.325 74.4829 293.559 75.8544C304.442 77.6607 313.147 81.3922 318.013 90.7588C325.744 107.606 324.227 128.748 324.96 149.586C325.093 165.802 325.392 182.301 325.206 197.715C324.938 211.618 324.715 232.337 316.004 241.988L315.961 242.034L315.948 242.029Z" fill="#E2DEDF"/>
<path d="M300.32 226.474C291.116 236.044 268.779 234.712 254.117 234.999C231.212 234.901 206.302 234.591 182.822 234.412C170.427 234.302 158.3 234.224 146.428 234.036C132.283 233.622 110.649 234.006 101.661 225.431C90.7926 215.265 92.611 191.723 91.9 177.794C92.1458 156.834 89.9592 132.576 93.875 113.182C98.0693 92.2231 120.849 93.5358 140.805 93.0669C178.444 93.2075 219.803 93.5926 257.477 94.0977C265.382 94.2679 273.937 94.62 281.058 95.7055C290.478 97.1345 298.009 100.074 302.221 107.449C308.901 120.709 307.566 137.341 308.195 153.743C308.296 166.504 308.549 179.484 308.37 191.614C308.123 202.556 307.915 218.857 300.37 226.445L300.333 226.486L300.32 226.474Z" fill="#2E414C"/>
<path d="M174.024 185.145C174.549 184.585 175.335 184.533 176.09 184.528C177.88 184.538 181.436 184.576 185.933 184.616C198.435 184.727 217.873 184.9 223.693 184.951C224.972 184.951 226.251 184.986 226.806 186.348C227.176 187.191 227.295 188.538 227.028 190.08C220.756 214.951 186.206 217.623 174.886 193.171C173.749 191.052 172.537 186.823 173.981 185.197L174.024 185.15L174.024 185.145Z" fill="#92D3CB"/>
<path d="M171.648 163.158C159.375 166.797 152.236 145.284 143.933 145.152C135.461 145.018 127.43 167.294 115.748 162.661C104.634 158.25 125.904 128.959 143.24 129.113C160.575 129.267 183.491 159.644 171.641 163.158L171.648 163.158Z" fill="#93D4CC"/>
<path d="M228.309 163.661C240.652 167.519 247.387 146.13 255.69 146.145C264.161 146.161 272.611 168.584 284.209 164.158C295.241 159.944 272.887 130.265 255.551 130.111C238.216 129.957 216.397 159.936 228.309 163.661Z" fill="#93D4CC"/>
<path d="M325.568 191.703C325.069 173.751 325.345 153.973 324.839 136.026L341.483 149.487L342.244 180.066L325.568 191.708L325.568 191.703Z" fill="#B1ABAF"/>
<path d="M74.8996 189.475C75.0615 171.529 74.4139 151.743 74.5821 133.803L58.1886 146.969L58.0019 177.54L74.8996 189.481L74.8996 189.475Z" fill="#B1ABAF"/>
<path d="M203.591 43.6426L194.19 43.5591L194.467 73.0237L203.868 73.1072L203.591 43.6426Z" fill="#B1ABAF"/>
<path d="M198.967 51.4145C206.867 51.4847 213.214 45.5099 213.144 38.0695C213.074 30.6291 206.613 24.5406 198.714 24.4704C190.814 24.4002 184.466 30.3749 184.536 37.8153C184.606 45.2557 191.067 51.3443 198.967 51.4145Z" fill="#00A551"/>
<defs>
<linearGradient id="paint0_linear_596_450" x1="198" y1="0" x2="198" y2="308" gradientUnits="userSpaceOnUse">
<stop stop-color="#FBC949"/>
<stop offset="1" stop-color="#FF9114"/>
</linearGradient>
</defs>
</svg>
